<svg width="24" height="24" viewBox="0 0 24 24" fill="none" xmlns="http://www.w3.org/2000/svg">
<path d="M15.5799 12C15.5799 13.98 13.9799 15.58 11.9999 15.58C10.0199 15.58 8.41992 13.98 8.41992 12C8.41992 10.02 10.0199 8.42001 11.9999 8.42001C13.9799 8.42001 15.5799 10.02 15.5799 12Z" stroke="#AEB9C8" stroke-width="1.5" stroke-linecap="round" stroke-linejoin="round"/>
<path d="M12.0001 20.27C15.5301 20.27 18.8201 18.19 21.1101 14.59C22.0101 13.18 22.0101 10.81 21.1101 9.4C18.8201 5.8 15.5301 3.72 12.0001 3.72C8.47009 3.72 5.18009 5.8 2.89009 9.4C1.99009 10.81 1.99009 13.18 2.89009 14.59C5.18009 18.19 8.47009 20.27 12.0001 20.27Z" stroke="#AEB9C8" stroke-width="1.5" stroke-linecap="round" stroke-linejoin="round"/>
</svg>
