<svg width="148" height="148" viewBox="0 0 148 148" fill="none" xmlns="http://www.w3.org/2000/svg">
<g id="Group 2">
<path id="Vector" d="M148 113.19H0V113.264H148V113.19Z" fill="#EBEBEB" fill-opacity="0.51"/>
<g id="Group">
<g id="Clip path group">
<mask id="mask0_52_229" style="mask-type:luminance" maskUnits="userSpaceOnUse" x="0" y="0" width="148" height="148">
<g id="SVGID_2_">
<path id="Vector_2" d="M148 0H0V148H148V0Z" fill="white"/>
</g>
</mask>
<g mask="url(#mask0_52_229)">
<path id="Vector_3" d="M70.1562 99.9888H12.9989C12.0674 99.9888 11.3093 99.2308 11.3093 98.2992V17.9554C11.3093 17.0241 12.0674 16.2658 12.9989 16.2658H70.1562C71.0874 16.2658 71.8455 17.0241 71.8455 17.9554V98.2992C71.8455 99.2308 71.0874 99.9888 70.1562 99.9888ZM12.9989 16.3398C12.1079 16.3398 11.3833 17.0647 11.3833 17.9554V98.2992C11.3833 99.1902 12.1079 99.9148 12.9989 99.9148H70.1562C71.0466 99.9148 71.7715 99.1902 71.7715 98.2992V17.9554C71.7715 17.0647 71.0466 16.3398 70.1562 16.3398H12.9989Z" fill="#EBEBEB" fill-opacity="0.51"/>
</g>
</g>
<g id="Clip path group_2">
<mask id="mask1_52_229" style="mask-type:luminance" maskUnits="userSpaceOnUse" x="0" y="0" width="148" height="148">
<g id="SVGID_2__2">
<path id="Vector_4" d="M148 0H0V148H148V0Z" fill="white"/>
</g>
</mask>
<g mask="url(#mask1_52_229)">
<path id="Vector_5" d="M134.18 99.9888H77.0228C76.0916 99.9888 75.3335 99.2308 75.3335 98.2992V17.9554C75.3335 17.0241 76.0916 16.2658 77.0228 16.2658H134.18C135.112 16.2658 135.87 17.0241 135.87 17.9554V98.2992C135.87 99.2308 135.112 99.9888 134.18 99.9888ZM77.0228 16.3398C76.1321 16.3398 75.4075 17.0647 75.4075 17.9554V98.2992C75.4075 99.1902 76.1321 99.9148 77.0228 99.9148H134.18C135.071 99.9148 135.796 99.1902 135.796 98.2992V17.9554C135.796 17.0647 135.071 16.3398 134.18 16.3398H77.0228Z" fill="#EBEBEB" fill-opacity="0.51"/>
</g>
</g>
<g id="Clip path group_3">
<mask id="mask2_52_229" style="mask-type:luminance" maskUnits="userSpaceOnUse" x="0" y="0" width="148" height="148">
<g id="SVGID_2__3">
<path id="Vector_6" d="M148 0H0V148H148V0Z" fill="white"/>
</g>
</mask>
<g mask="url(#mask2_52_229)">
<path id="Vector_7" d="M133.171 116.009H123.826V116.083H133.171V116.009Z" fill="#EBEBEB" fill-opacity="0.51"/>
</g>
</g>
<g id="Clip path group_4">
<mask id="mask3_52_229" style="mask-type:luminance" maskUnits="userSpaceOnUse" x="0" y="0" width="148" height="148">
<g id="SVGID_2__4">
<path id="Vector_8" d="M148 0H0V148H148V0Z" fill="white"/>
</g>
</mask>
<g mask="url(#mask3_52_229)">
<path id="Vector_9" d="M99.2589 115.206H89.3701V115.28H99.2589V115.206Z" fill="#EBEBEB" fill-opacity="0.51"/>
</g>
</g>
<g id="Clip path group_5">
<mask id="mask4_52_229" style="mask-type:luminance" maskUnits="userSpaceOnUse" x="0" y="0" width="148" height="148">
<g id="SVGID_2__5">
<path id="Vector_10" d="M148 0H0V148H148V0Z" fill="white"/>
</g>
</mask>
<g mask="url(#mask4_52_229)">
<path id="Vector_11" d="M135.87 118.758H117.39V118.832H135.87V118.758Z" fill="#EBEBEB" fill-opacity="0.51"/>
</g>
</g>
<g id="Clip path group_6">
<mask id="mask5_52_229" style="mask-type:luminance" maskUnits="userSpaceOnUse" x="0" y="0" width="148" height="148">
<g id="SVGID_2__6">
<path id="Vector_12" d="M148 0H0V148H148V0Z" fill="white"/>
</g>
</mask>
<g mask="url(#mask5_52_229)">
<path id="Vector_13" d="M21.2211 118.26H15.5278V118.334H21.2211V118.26Z" fill="#EBEBEB" fill-opacity="0.51"/>
</g>
</g>
<g id="Clip path group_7">
<mask id="mask6_52_229" style="mask-type:luminance" maskUnits="userSpaceOnUse" x="0" y="0" width="148" height="148">
<g id="SVGID_2__7">
<path id="Vector_14" d="M148 0H0V148H148V0Z" fill="white"/>
</g>
</mask>
<g mask="url(#mask6_52_229)">
<path id="Vector_15" d="M32.8231 118.26H23.8567V118.334H32.8231V118.26Z" fill="#EBEBEB" fill-opacity="0.51"/>
</g>
</g>
<g id="Clip path group_8">
<mask id="mask7_52_229" style="mask-type:luminance" maskUnits="userSpaceOnUse" x="0" y="0" width="148" height="148">
<g id="SVGID_2__8">
<path id="Vector_16" d="M148 0H0V148H148V0Z" fill="white"/>
</g>
</mask>
<g mask="url(#mask7_52_229)">
<path id="Vector_17" d="M72.2636 117.011H56.115V117.085H72.2636V117.011Z" fill="#EBEBEB" fill-opacity="0.51"/>
</g>
</g>
<g id="Clip path group_9">
<mask id="mask8_52_229" style="mask-type:luminance" maskUnits="userSpaceOnUse" x="0" y="0" width="148" height="148">
<g id="SVGID_2__9">
<path id="Vector_18" d="M148 0H0V148H148V0Z" fill="white"/>
</g>
</mask>
<g mask="url(#mask8_52_229)">
<path id="Vector_19" d="M135.11 75.5522C132.108 74.2936 127.134 75.5081 123.014 80.504C121.11 82.8134 119.277 86.1979 118.783 89.6634C118.815 85.7098 118.854 81.4613 118.894 77.4522C119.53 74.8291 120.116 73.6315 121.022 71.8108C124.045 65.7366 126.543 66.407 130.648 61.6532C137.478 53.7447 141.392 38.8228 134.597 44.7691C128.438 50.1587 125.458 55.5512 123.387 60.2313C120.588 66.555 119.463 70.9678 118.915 75.398C118.953 71.6326 118.991 68.1756 119.023 65.5078C119.128 56.8071 119.365 54.0102 119.409 53.1474C119.516 51.0529 120.207 49.836 120.399 49.535C122.018 46.9936 124.56 45.3291 127.051 42.4319C132.854 35.6846 136.204 27.3235 133.409 26.5494C130.487 25.7402 126.647 29.4227 122.381 38.0671C119.935 43.0224 119.313 44.1946 118.818 53.9037C118.775 54.7479 118.591 57.9269 118.503 62.3444C117.812 57.5921 116.501 52.8768 114.211 49.7428C109.799 43.7062 106.443 43.1299 103.997 43.7062C101.551 44.2822 102.577 50.6204 105.336 54.0082C109.488 59.1062 116.404 58.0204 118.456 64.8027C118.353 70.7902 118.278 78.3752 118.236 85.4374C117.538 81.7904 116.809 78.757 115.204 75.9006C112.221 70.5889 108.55 68.2724 106.024 70.7742C104.454 72.3294 106.276 76.6886 109.563 78.48C112.899 80.298 115.635 82.8134 116.695 84.3239C116.942 84.6761 117.762 86.0277 118.229 86.8044C118.184 95.4265 118.192 103.037 118.265 105.632L118.705 105.658C118.679 104.988 118.699 100.602 118.742 94.7978C119.469 87.5527 124.585 87.159 127.856 85.7817C133.692 83.3237 138.112 76.8105 135.11 75.5522Z" fill="#E6E6E6" fill-opacity="0.38"/>
</g>
</g>
<g id="Clip path group_10">
<mask id="mask9_52_229" style="mask-type:luminance" maskUnits="userSpaceOnUse" x="0" y="0" width="148" height="148">
<g id="SVGID_2__10">
<path id="Vector_20" d="M148 0H0V148H148V0Z" fill="white"/>
</g>
</mask>
<g mask="url(#mask9_52_229)">
<path id="Vector_21" d="M114.258 113.19H122.885C123.357 113.19 123.763 112.914 123.856 112.53L124.469 101.833H112.674L113.286 112.53C113.38 112.914 113.786 113.19 114.258 113.19Z" fill="#E6E6E6" fill-opacity="0.38"/>
</g>
</g>
<g id="Clip path group_11">
<mask id="mask10_52_229" style="mask-type:luminance" maskUnits="userSpaceOnUse" x="0" y="0" width="148" height="148">
<g id="SVGID_2__11">
<path id="Vector_22" d="M148 0H0V148H148V0Z" fill="white"/>
</g>
</mask>
<g mask="url(#mask10_52_229)">
<path id="Vector_23" d="M112.891 105.475H124.253C124.525 105.475 124.754 105.117 124.784 104.643L125.017 101.03C125.052 100.475 124.804 99.9885 124.485 99.9885H112.659C112.339 99.9885 112.091 100.475 112.127 101.03L112.359 104.643C112.389 105.117 112.618 105.475 112.891 105.475Z" fill="#F5F5F5" fill-opacity="0.17"/>
</g>
</g>
<g id="Clip path group_12">
<mask id="mask11_52_229" style="mask-type:luminance" maskUnits="userSpaceOnUse" x="0" y="0" width="148" height="148">
<g id="SVGID_2__12">
<path id="Vector_24" d="M148 0H0V148H148V0Z" fill="white"/>
</g>
</mask>
<g mask="url(#mask11_52_229)">
<path id="Vector_25" d="M55.0579 90.1216H43.8594V111.23H55.0579V90.1216Z" fill="#F0F0F0" fill-opacity="0.44"/>
</g>
</g>
<g id="Clip path group_13">
<mask id="mask12_52_229" style="mask-type:luminance" maskUnits="userSpaceOnUse" x="0" y="0" width="148" height="148">
<g id="SVGID_2__13">
<path id="Vector_26" d="M148 0H0V148H148V0Z" fill="white"/>
</g>
</mask>
<g mask="url(#mask12_52_229)">
<path id="Vector_27" d="M101.235 111.23H46.0095V113.19H101.235V111.23Z" fill="#F0F0F0" fill-opacity="0.44"/>
</g>
</g>
<g id="Clip path group_14">
<mask id="mask13_52_229" style="mask-type:luminance" maskUnits="userSpaceOnUse" x="0" y="0" width="148" height="148">
<g id="SVGID_2__14">
<path id="Vector_28" d="M148 0H0V148H148V0Z" fill="white"/>
</g>
</mask>
<g mask="url(#mask13_52_229)">
<path id="Vector_29" d="M103.386 90.1216H55.0581V111.23H103.386V90.1216Z" fill="#FAFAFA" fill-opacity="0.47"/>
</g>
</g>
<g id="Clip path group_15">
<mask id="mask14_52_229" style="mask-type:luminance" maskUnits="userSpaceOnUse" x="0" y="0" width="148" height="148">
<g id="SVGID_2__15">
<path id="Vector_30" d="M148 0H0V148H148V0Z" fill="white"/>
</g>
</mask>
<g mask="url(#mask14_52_229)">
<path id="Vector_31" d="M98.9829 92.6898H59.4607V99.1849H98.9829V92.6898Z" fill="#F0F0F0" fill-opacity="0.44"/>
</g>
</g>
<g id="Clip path group_16">
<mask id="mask15_52_229" style="mask-type:luminance" maskUnits="userSpaceOnUse" x="0" y="0" width="148" height="148">
<g id="SVGID_2__16">
<path id="Vector_32" d="M148 0H0V148H148V0Z" fill="white"/>
</g>
</mask>
<g mask="url(#mask15_52_229)">
<path id="Vector_33" d="M98.9829 101.035H59.4607V107.53H98.9829V101.035Z" fill="#F0F0F0" fill-opacity="0.44"/>
</g>
</g>
<g id="Clip path group_17">
<mask id="mask16_52_229" style="mask-type:luminance" maskUnits="userSpaceOnUse" x="0" y="0" width="148" height="148">
<g id="SVGID_2__17">
<path id="Vector_34" d="M148 0H0V148H148V0Z" fill="white"/>
</g>
</mask>
<g mask="url(#mask16_52_229)">
<path id="Vector_35" d="M84.07 93.2752H74.3745C73.9995 93.2752 73.6931 92.9686 73.6931 92.5939V92.5651C73.6931 92.1904 73.9998 91.884 74.3745 91.884H84.07C84.4447 91.884 84.7514 92.1904 84.7514 92.5651V92.5939C84.7511 92.9686 84.4444 93.2752 84.07 93.2752Z" fill="#FAFAFA" fill-opacity="0.47"/>
</g>
</g>
<g id="Clip path group_18">
<mask id="mask17_52_229" style="mask-type:luminance" maskUnits="userSpaceOnUse" x="0" y="0" width="148" height="148">
<g id="SVGID_2__18">
<path id="Vector_36" d="M148 0H0V148H148V0Z" fill="white"/>
</g>
</mask>
<g mask="url(#mask17_52_229)">
<path id="Vector_37" d="M84.07 101.621H74.3745C73.9995 101.621 73.6931 101.314 73.6931 100.939V100.911C73.6931 100.536 73.9998 100.229 74.3745 100.229H84.07C84.4447 100.229 84.7514 100.536 84.7514 100.911V100.939C84.7511 101.314 84.4444 101.621 84.07 101.621Z" fill="#FAFAFA" fill-opacity="0.47"/>
</g>
</g>
<g id="Clip path group_19">
<mask id="mask18_52_229" style="mask-type:luminance" maskUnits="userSpaceOnUse" x="0" y="0" width="148" height="148">
<g id="SVGID_2__19">
<path id="Vector_38" d="M148 0H0V148H148V0Z" fill="white"/>
</g>
</mask>
<g mask="url(#mask18_52_229)">
<path id="Vector_39" d="M104.878 88.229H55.0581V90.1219H104.878V88.229Z" fill="#F0F0F0" fill-opacity="0.44"/>
</g>
</g>
<g id="Clip path group_20">
<mask id="mask19_52_229" style="mask-type:luminance" maskUnits="userSpaceOnUse" x="0" y="0" width="148" height="148">
<g id="SVGID_2__20">
<path id="Vector_40" d="M148 0H0V148H148V0Z" fill="white"/>
</g>
</mask>
<g mask="url(#mask19_52_229)">
<path id="Vector_41" d="M55.058 88.229H42.2944V90.1219H55.058V88.229Z" fill="#E6E6E6" fill-opacity="0.38"/>
</g>
</g>
<g id="Clip path group_21">
<mask id="mask20_52_229" style="mask-type:luminance" maskUnits="userSpaceOnUse" x="0" y="0" width="148" height="148">
<g id="SVGID_2__21">
<path id="Vector_42" d="M148 0H0V148H148V0Z" fill="white"/>
</g>
</mask>
<g mask="url(#mask20_52_229)">
<path id="Vector_43" d="M33.1063 96.6384C31.8276 95.968 29.5833 96.3161 27.5729 98.3677C26.6437 99.3158 25.7051 100.742 25.3552 102.255C25.5198 100.509 25.6983 98.6329 25.8679 96.8625C26.2489 95.7274 26.5532 95.2203 27.0226 94.4504C28.5888 91.8805 29.6674 92.2718 31.6618 90.3268C34.9803 87.091 37.2764 80.6456 34.0479 83.0153C31.1216 85.1631 29.5999 87.4331 28.5071 89.4226C27.03 92.1111 26.3655 94.0183 25.9549 95.9553C26.1148 94.2929 26.2628 92.7665 26.3782 91.5887C26.7547 87.7475 26.9658 86.5206 27.0179 86.1411C27.1446 85.2197 27.4962 84.7079 27.5924 84.5821C28.4046 83.5203 29.5907 82.8815 30.8016 81.6958C33.6222 78.9338 35.4201 75.3664 34.2145 74.9186C32.9539 74.45 31.1172 75.9315 28.9037 79.5897C27.635 81.6866 27.3154 82.1809 26.7284 86.4531C26.6772 86.8246 26.4753 88.2226 26.2681 90.1711C26.1435 88.0447 25.7433 85.9111 24.85 84.4397C23.1293 81.6043 21.6686 81.2222 20.5654 81.3841C19.4625 81.546 19.6756 84.3855 20.7661 85.9878C22.4071 88.3984 25.505 88.1811 26.1544 91.2563C25.8818 93.8984 25.5604 97.2473 25.2741 100.367C25.1037 98.7285 24.8965 97.3604 24.2959 96.0373C23.1791 93.5766 21.6449 92.4136 20.4337 93.4233C19.6809 94.0508 20.3206 96.0464 21.7053 96.9629C23.1104 97.8929 24.2242 99.1083 24.6351 99.8163C24.731 99.9815 25.0418 100.61 25.2188 100.97C24.8716 104.779 24.5862 108.143 24.5202 109.292L24.7135 109.321C24.7274 109.023 24.903 107.086 25.1421 104.522C25.7386 101.348 28.0145 101.369 29.512 100.884C32.1843 100.019 34.385 97.3086 33.1063 96.6384Z" fill="#F0F0F0" fill-opacity="0.44"/>
</g>
</g>
<g id="Clip path group_22">
<mask id="mask21_52_229" style="mask-type:luminance" maskUnits="userSpaceOnUse" x="0" y="0" width="148" height="148">
<g id="SVGID_2__22">
<path id="Vector_44" d="M148 0H0V148H148V0Z" fill="white"/>
</g>
</mask>
<g mask="url(#mask21_52_229)">
<path id="Vector_45" d="M13.3029 90.0429C14.9582 89.2964 17.7503 89.8994 20.1228 92.624C21.2189 93.8832 22.2919 95.7433 22.6192 97.6688C22.542 95.4642 22.4567 93.0956 22.3744 90.8605C21.9805 89.4071 21.6359 88.7479 21.1037 87.7463C19.3274 84.4038 17.9439 84.8153 15.5839 82.2256C11.6569 77.9173 9.25098 69.6541 13.1292 72.8687C16.6445 75.7819 18.387 78.7449 19.6122 81.3239C21.2674 84.8088 21.9603 87.2528 22.3324 89.7155C22.2549 87.616 22.1823 85.6888 22.1246 84.2017C21.9361 79.3508 21.762 77.7944 21.7244 77.314C21.6338 76.1478 21.2301 75.4794 21.1185 75.3143C20.1775 73.921 18.7354 73.0306 17.3028 71.4523C13.9657 67.776 11.9724 63.1635 13.5193 62.6901C15.1369 62.1952 17.3336 64.1915 19.8419 68.9485C21.2795 71.6752 21.6442 72.3199 22.0651 77.7272C22.1018 78.197 22.2519 79.9674 22.3676 82.4295C22.6817 79.7691 23.3421 77.1199 24.5725 75.3379C26.9429 71.9055 28.8056 71.5337 30.1785 71.8188C31.5513 72.1035 31.0736 75.6538 29.5856 77.584C27.3466 80.4889 23.4729 79.9869 22.4301 83.8C22.5769 87.1374 22.7323 91.3666 22.8611 95.3043C23.1961 93.2598 23.5575 91.5572 24.4094 89.9405C25.9939 86.934 28.0064 85.5869 29.4524 86.9444C30.3513 87.7886 29.4003 90.2466 27.5941 91.2944C25.7607 92.3582 24.2724 93.8018 23.7041 94.6602C23.5715 94.8603 23.1349 95.6264 22.8856 96.0665C23.0396 100.874 23.1491 105.119 23.1467 106.567L22.9019 106.588C22.9064 106.214 22.8294 103.768 22.7187 100.532C22.2051 96.5025 19.3461 96.359 17.5017 95.64C14.2099 94.3562 11.6477 90.79 13.3029 90.0429Z" fill="#E6E6E6" fill-opacity="0.38"/>
</g>
</g>
<g id="Clip path group_23">
<mask id="mask22_52_229" style="mask-type:luminance" maskUnits="userSpaceOnUse" x="0" y="0" width="148" height="148">
<g id="SVGID_2__23">
<path id="Vector_46" d="M148 0H0V148H148V0Z" fill="white"/>
</g>
</mask>
<g mask="url(#mask22_52_229)">
<path id="Vector_47" d="M20.3023 113.19H27.9554C28.3736 113.19 28.7338 112.945 28.817 112.604L29.3605 103.115H18.8975L19.4406 112.604C19.5238 112.945 19.884 113.19 20.3023 113.19Z" fill="#E6E6E6" fill-opacity="0.38"/>
</g>
</g>
<g id="Clip path group_24">
<mask id="mask23_52_229" style="mask-type:luminance" maskUnits="userSpaceOnUse" x="0" y="0" width="148" height="148">
<g id="SVGID_2__24">
<path id="Vector_48" d="M148 0H0V148H148V0Z" fill="white"/>
</g>
</mask>
<g mask="url(#mask23_52_229)">
<path id="Vector_49" d="M19.0898 106.346H29.1692C29.4107 106.346 29.6135 106.028 29.6407 105.608L29.8468 102.403C29.8784 101.91 29.6582 101.479 29.3752 101.479H18.8835C18.6002 101.479 18.3803 101.91 18.412 102.403L18.618 105.608C18.6449 106.028 18.848 106.346 19.0898 106.346Z" fill="#F5F5F5" fill-opacity="0.17"/>
</g>
</g>
<g id="Clip path group_25">
<mask id="mask24_52_229" style="mask-type:luminance" maskUnits="userSpaceOnUse" x="0" y="0" width="148" height="148">
<g id="SVGID_2__25">
<path id="Vector_50" d="M148 0H0V148H148V0Z" fill="white"/>
</g>
</mask>
<g mask="url(#mask24_52_229)">
<path id="Vector_51" d="M80.8771 23.6379H17.8167V59.2941H80.8771V23.6379Z" fill="#E6E6E6" fill-opacity="0.38"/>
</g>
</g>
<g id="Clip path group_26">
<mask id="mask25_52_229" style="mask-type:luminance" maskUnits="userSpaceOnUse" x="0" y="0" width="148" height="148">
<g id="SVGID_2__26">
<path id="Vector_52" d="M148 0H0V148H148V0Z" fill="white"/>
</g>
</mask>
<g mask="url(#mask25_52_229)">
<path id="Vector_53" d="M82.8472 23.6379H18.1501V59.2941H82.8472V23.6379Z" fill="#F5F5F5" fill-opacity="0.17"/>
</g>
</g>
<g id="Clip path group_27">
<mask id="mask26_52_229" style="mask-type:luminance" maskUnits="userSpaceOnUse" x="0" y="0" width="148" height="148">
<g id="SVGID_2__27">
<path id="Vector_54" d="M148 0H0V148H148V0Z" fill="white"/>
</g>
</mask>
<g mask="url(#mask26_52_229)">
<path id="Vector_55" d="M19.7239 56.4818V26.4503C19.7239 25.7662 20.2783 25.2118 20.962 25.2118H80.0348C80.7188 25.2118 81.2732 25.7662 81.2732 26.4503V56.4818C81.2732 57.1659 80.7188 57.7203 80.0348 57.7203H20.962C20.2783 57.7203 19.7239 57.1659 19.7239 56.4818Z" fill="white" fill-opacity="0.52"/>
</g>
</g>
</g>
<g id="Group_2">
<g id="Clip path group_28">
<mask id="mask27_52_229" style="mask-type:luminance" maskUnits="userSpaceOnUse" x="0" y="0" width="148" height="148">
<g id="SVGID_8_">
<path id="Vector_56" d="M148 0H0V148H148V0Z" fill="white"/>
</g>
</mask>
<g mask="url(#mask27_52_229)">
<path id="Vector_57" d="M131.391 123.206C131.391 125.058 105.696 126.558 74 126.558C42.3038 126.558 16.6089 125.058 16.6089 123.206C16.6089 121.355 42.3038 119.855 74 119.855C105.696 119.855 131.391 121.355 131.391 123.206Z" fill="#F5F5F5" fill-opacity="0.17"/>
</g>
</g>
</g>
<g id="Group_3">
<g id="Clip path group_29">
<mask id="mask28_52_229" style="mask-type:luminance" maskUnits="userSpaceOnUse" x="0" y="0" width="148" height="148">
<g id="SVGID_10_">
<path id="Vector_58" d="M148 0H0V148H148V0Z" fill="white"/>
</g>
</mask>
<g mask="url(#mask28_52_229)">
<path id="Vector_59" d="M118.966 92.4725H111.863V92.1765H118.966C120.614 92.1765 122.21 91.2053 123.03 89.7022L123.29 89.844C122.418 91.4409 120.721 92.4725 118.966 92.4725Z" fill="#407BFF"/>
</g>
</g>
<g id="Clip path group_30">
<mask id="mask29_52_229" style="mask-type:luminance" maskUnits="userSpaceOnUse" x="0" y="0" width="148" height="148">
<g id="SVGID_10__2">
<path id="Vector_60" d="M148 0H0V148H148V0Z" fill="white"/>
</g>
</mask>
<g mask="url(#mask29_52_229)">
<path id="Vector_61" d="M110.457 92.1765H107.547V92.4725H110.457V92.1765Z" fill="#407BFF"/>
</g>
</g>
<g id="Clip path group_31">
<mask id="mask30_52_229" style="mask-type:luminance" maskUnits="userSpaceOnUse" x="0" y="0" width="148" height="148">
<g id="SVGID_10__3">
<path id="Vector_62" d="M148 0H0V148H148V0Z" fill="white"/>
</g>
</mask>
<g mask="url(#mask30_52_229)">
<path id="Vector_63" d="M118.966 91.4365H35.8484C33.8948 91.4365 32.4358 89.8381 32.606 87.8845L37.0984 36.3805C37.2689 34.4266 39.0067 32.8285 40.9603 32.8285H124.078C126.031 32.8285 127.49 34.4266 127.32 36.3805L122.827 87.8845C122.657 89.8381 120.919 91.4365 118.966 91.4365Z" fill="#407BFF"/>
</g>
</g>
<g id="Clip path group_32">
<mask id="mask31_52_229" style="mask-type:luminance" maskUnits="userSpaceOnUse" x="0" y="0" width="148" height="148">
<g id="SVGID_10__4">
<path id="Vector_64" d="M148 0H0V148H148V0Z" fill="white"/>
</g>
</mask>
<g mask="url(#mask31_52_229)">
<path id="Vector_65" d="M117.234 90.3573H36.1905C34.5269 90.3573 33.2849 88.9963 33.43 87.3328L37.5225 40.4126C37.5642 39.9328 37.9872 39.5442 38.4667 39.5442H123.822C124.302 39.5442 124.657 39.9328 124.615 40.4126L120.523 87.3328C120.378 88.9963 118.898 90.3573 117.234 90.3573Z" fill="white" fill-opacity="0.52"/>
</g>
</g>
<g id="Clip path group_33">
<mask id="mask32_52_229" style="mask-type:luminance" maskUnits="userSpaceOnUse" x="0" y="0" width="148" height="148">
<g id="SVGID_10__5">
<path id="Vector_66" d="M148 0H0V148H148V0Z" fill="white"/>
</g>
</mask>
<g mask="url(#mask32_52_229)">
<path id="Vector_67" d="M46.5179 37.1942C44.1105 37.1942 42.323 35.2358 42.5329 32.8285C42.743 30.4211 44.8721 28.4625 47.2795 28.4625C49.6869 28.4625 51.4744 30.4211 51.2646 32.8285H49.4886C49.6129 31.4003 48.5526 30.2385 47.1247 30.2385C45.6965 30.2385 44.4335 31.4003 44.3089 32.8285C44.1845 34.2564 45.2448 35.4182 46.6727 35.4182L46.5179 37.1942Z" fill="#263238"/>
</g>
</g>
<g id="Clip path group_34">
<mask id="mask33_52_229" style="mask-type:luminance" maskUnits="userSpaceOnUse" x="0" y="0" width="148" height="148">
<g id="SVGID_10__6">
<path id="Vector_68" d="M148 0H0V148H148V0Z" fill="white"/>
</g>
</mask>
<g mask="url(#mask33_52_229)">
<path id="Vector_69" d="M64.0861 37.1942C61.6787 37.1942 59.8909 35.2358 60.1007 32.8285C60.3109 30.4211 62.4403 28.4625 64.8477 28.4625C67.255 28.4625 69.0426 30.4211 68.8324 32.8285H67.0564C67.181 31.4003 66.1208 30.2385 64.6929 30.2385C63.2644 30.2385 62.0013 31.4003 61.8767 32.8285C61.7524 34.2564 62.8127 35.4182 64.2409 35.4182L64.0861 37.1942Z" fill="#263238"/>
</g>
</g>
<g id="Clip path group_35">
<mask id="mask34_52_229" style="mask-type:luminance" maskUnits="userSpaceOnUse" x="0" y="0" width="148" height="148">
<g id="SVGID_10__7">
<path id="Vector_70" d="M148 0H0V148H148V0Z" fill="white"/>
</g>
</mask>
<g mask="url(#mask34_52_229)">
<path id="Vector_71" d="M81.6542 37.1942C79.2466 37.1942 77.4587 35.2358 77.6686 32.8285C77.8791 30.4211 80.0082 28.4625 82.4155 28.4625C84.8232 28.4625 86.6105 30.4211 86.4006 32.8285H84.6246C84.7492 31.4003 83.6889 30.2385 82.261 30.2385C80.8325 30.2385 79.5695 31.4003 79.4446 32.8285C79.3203 34.2564 80.3805 35.4182 81.8087 35.4182L81.6542 37.1942Z" fill="#263238"/>
</g>
</g>
<g id="Clip path group_36">
<mask id="mask35_52_229" style="mask-type:luminance" maskUnits="userSpaceOnUse" x="0" y="0" width="148" height="148">
<g id="SVGID_10__8">
<path id="Vector_72" d="M148 0H0V148H148V0Z" fill="white"/>
</g>
</mask>
<g mask="url(#mask35_52_229)">
<path id="Vector_73" d="M99.2221 37.1942C96.8144 37.1942 95.0268 35.2358 95.2367 32.8285C95.4472 30.4211 97.576 28.4625 99.9834 28.4625C102.391 28.4625 104.179 30.4211 103.968 32.8285H102.192C102.317 31.4003 101.257 30.2385 99.8289 30.2385C98.4007 30.2385 97.1376 31.4003 97.0127 32.8285C96.8884 34.2564 97.9487 35.4182 99.3766 35.4182L99.2221 37.1942Z" fill="#263238"/>
</g>
</g>
<g id="Clip path group_37">
<mask id="mask36_52_229" style="mask-type:luminance" maskUnits="userSpaceOnUse" x="0" y="0" width="148" height="148">
<g id="SVGID_10__9">
<path id="Vector_74" d="M148 0H0V148H148V0Z" fill="white"/>
</g>
</mask>
<g mask="url(#mask36_52_229)">
<path id="Vector_75" d="M116.79 37.1942C114.383 37.1942 112.595 35.2358 112.805 32.8285C113.016 30.4211 115.144 28.4625 117.552 28.4625C119.959 28.4625 121.747 30.4211 121.537 32.8285H119.76C119.885 31.4003 118.825 30.2385 117.397 30.2385C115.969 30.2385 114.706 31.4003 114.581 32.8285C114.457 34.2564 115.517 35.4182 116.945 35.4182L116.79 37.1942Z" fill="#263238"/>
</g>
</g>
<g id="Clip path group_38">
<mask id="mask37_52_229" style="mask-type:luminance" maskUnits="userSpaceOnUse" x="0" y="0" width="148" height="148">
<g id="SVGID_10__10">
<path id="Vector_76" d="M148 0H0V148H148V0Z" fill="white"/>
</g>
</mask>
<g mask="url(#mask37_52_229)">
<path id="Vector_77" d="M117.02 88.229H36.9042C36.8222 88.229 36.7618 88.1627 36.7689 88.081L40.7622 42.3005C40.7693 42.2188 40.8412 42.1525 40.9229 42.1525H121.039C121.121 42.1525 121.181 42.2188 121.174 42.3005L117.181 88.081C117.174 88.163 117.102 88.229 117.02 88.229ZM37.0779 87.933H116.898L120.865 42.4485H41.0452L37.0779 87.933Z" fill="#E0E0E0" fill-opacity="0.48"/>
</g>
</g>
<g id="Clip path group_39">
<mask id="mask38_52_229" style="mask-type:luminance" maskUnits="userSpaceOnUse" x="0" y="0" width="148" height="148">
<g id="SVGID_10__11">
<path id="Vector_78" d="M148 0H0V148H148V0Z" fill="white"/>
</g>
</mask>
<g mask="url(#mask38_52_229)">
<path id="Vector_79" d="M117.818 79.0729H37.7025C37.6208 79.0729 37.5601 79.0066 37.5675 78.9249C37.5746 78.8432 37.6465 78.7769 37.7282 78.7769H117.844C117.926 78.7769 117.987 78.8432 117.979 78.9249C117.972 79.0066 117.9 79.0729 117.818 79.0729Z" fill="#E0E0E0" fill-opacity="0.48"/>
</g>
</g>
<g id="Clip path group_40">
<mask id="mask39_52_229" style="mask-type:luminance" maskUnits="userSpaceOnUse" x="0" y="0" width="148" height="148">
<g id="SVGID_10__12">
<path id="Vector_80" d="M148 0H0V148H148V0Z" fill="white"/>
</g>
</mask>
<g mask="url(#mask39_52_229)">
<path id="Vector_81" d="M118.617 69.9167H38.5011C38.4194 69.9167 38.3587 69.8504 38.3661 69.7687C38.3732 69.687 38.4451 69.6207 38.5268 69.6207H118.643C118.725 69.6207 118.785 69.687 118.778 69.7687C118.771 69.8504 118.699 69.9167 118.617 69.9167Z" fill="#E0E0E0" fill-opacity="0.48"/>
</g>
</g>
<g id="Clip path group_41">
<mask id="mask40_52_229" style="mask-type:luminance" maskUnits="userSpaceOnUse" x="0" y="0" width="148" height="148">
<g id="SVGID_10__13">
<path id="Vector_82" d="M148 0H0V148H148V0Z" fill="white"/>
</g>
</mask>
<g mask="url(#mask40_52_229)">
<path id="Vector_83" d="M119.416 60.7605H39.2996C39.218 60.7605 39.1573 60.6942 39.1647 60.6125C39.1718 60.5308 39.2437 60.4645 39.3254 60.4645H119.441C119.523 60.4645 119.583 60.5308 119.577 60.6125C119.57 60.6942 119.497 60.7605 119.416 60.7605Z" fill="#E0E0E0" fill-opacity="0.48"/>
</g>
</g>
<g id="Clip path group_42">
<mask id="mask41_52_229" style="mask-type:luminance" maskUnits="userSpaceOnUse" x="0" y="0" width="148" height="148">
<g id="SVGID_10__14">
<path id="Vector_84" d="M148 0H0V148H148V0Z" fill="white"/>
</g>
</mask>
<g mask="url(#mask41_52_229)">
<path id="Vector_85" d="M120.214 51.6047H40.098C40.0163 51.6047 39.9556 51.5384 39.9627 51.4567C39.9701 51.375 40.0421 51.3087 40.1237 51.3087H120.24C120.322 51.3087 120.382 51.375 120.375 51.4567C120.368 51.5384 120.296 51.6047 120.214 51.6047Z" fill="#E0E0E0" fill-opacity="0.48"/>
</g>
</g>
<g id="Clip path group_43">
<mask id="mask42_52_229" style="mask-type:luminance" maskUnits="userSpaceOnUse" x="0" y="0" width="148" height="148">
<g id="SVGID_10__15">
<path id="Vector_86" d="M148 0H0V148H148V0Z" fill="white"/>
</g>
</mask>
<g mask="url(#mask42_52_229)">
<path id="Vector_87" d="M107.005 88.229C106.923 88.229 106.863 88.1627 106.87 88.081L110.863 42.3005C110.87 42.2188 110.942 42.1525 111.024 42.1525C111.106 42.1525 111.166 42.2188 111.159 42.3005L107.166 88.081C107.159 88.163 107.087 88.229 107.005 88.229Z" fill="#E0E0E0" fill-opacity="0.48"/>
</g>
</g>
<g id="Clip path group_44">
<mask id="mask43_52_229" style="mask-type:luminance" maskUnits="userSpaceOnUse" x="0" y="0" width="148" height="148">
<g id="SVGID_10__16">
<path id="Vector_88" d="M148 0H0V148H148V0Z" fill="white"/>
</g>
</mask>
<g mask="url(#mask43_52_229)">
<path id="Vector_89" d="M96.9905 88.229C96.9088 88.229 96.8487 88.1627 96.8555 88.081L100.849 42.3005C100.855 42.2188 100.928 42.1525 101.01 42.1525C101.091 42.1525 101.151 42.2188 101.145 42.3005L97.1515 88.081C97.1444 88.163 97.0722 88.229 96.9905 88.229Z" fill="#E0E0E0" fill-opacity="0.48"/>
</g>
</g>
<g id="Clip path group_45">
<mask id="mask44_52_229" style="mask-type:luminance" maskUnits="userSpaceOnUse" x="0" y="0" width="148" height="148">
<g id="SVGID_10__17">
<path id="Vector_90" d="M148 0H0V148H148V0Z" fill="white"/>
</g>
</mask>
<g mask="url(#mask44_52_229)">
<path id="Vector_91" d="M86.9761 88.229C86.8947 88.229 86.8343 88.1627 86.8411 88.081L90.8341 42.3005C90.8412 42.2188 90.9132 42.1525 90.9952 42.1525C91.0769 42.1525 91.1372 42.2188 91.1301 42.3005L87.1371 88.081C87.13 88.163 87.0578 88.229 86.9761 88.229Z" fill="#E0E0E0" fill-opacity="0.48"/>
</g>
</g>
<g id="Clip path group_46">
<mask id="mask45_52_229" style="mask-type:luminance" maskUnits="userSpaceOnUse" x="0" y="0" width="148" height="148">
<g id="SVGID_10__18">
<path id="Vector_92" d="M148 0H0V148H148V0Z" fill="white"/>
</g>
</mask>
<g mask="url(#mask45_52_229)">
<path id="Vector_93" d="M76.9619 88.229C76.8805 88.229 76.8201 88.1627 76.8269 88.081L80.82 42.3005C80.8271 42.2188 80.899 42.1525 80.981 42.1525C81.0627 42.1525 81.1231 42.2188 81.116 42.3005L77.1229 88.081C77.1158 88.163 77.0436 88.229 76.9619 88.229Z" fill="#E0E0E0" fill-opacity="0.48"/>
</g>
</g>
<g id="Clip path group_47">
<mask id="mask46_52_229" style="mask-type:luminance" maskUnits="userSpaceOnUse" x="0" y="0" width="148" height="148">
<g id="SVGID_10__19">
<path id="Vector_94" d="M148 0H0V148H148V0Z" fill="white"/>
</g>
</mask>
<g mask="url(#mask46_52_229)">
<path id="Vector_95" d="M66.9473 88.229C66.8656 88.229 66.8052 88.1627 66.8123 88.081L70.8054 42.3005C70.8125 42.2188 70.8844 42.1525 70.9664 42.1525C71.0481 42.1525 71.1085 42.2188 71.1014 42.3005L67.1083 88.081C67.1012 88.163 67.029 88.229 66.9473 88.229Z" fill="#E0E0E0" fill-opacity="0.48"/>
</g>
</g>
<g id="Clip path group_48">
<mask id="mask47_52_229" style="mask-type:luminance" maskUnits="userSpaceOnUse" x="0" y="0" width="148" height="148">
<g id="SVGID_10__20">
<path id="Vector_96" d="M148 0H0V148H148V0Z" fill="white"/>
</g>
</mask>
<g mask="url(#mask47_52_229)">
<path id="Vector_97" d="M56.9324 88.229C56.8507 88.229 56.7903 88.1627 56.7974 88.081L60.7905 42.3005C60.7976 42.2188 60.8695 42.1525 60.9515 42.1525C61.0332 42.1525 61.0936 42.2188 61.0865 42.3005L57.0934 88.081C57.0863 88.163 57.0141 88.229 56.9324 88.229Z" fill="#E0E0E0" fill-opacity="0.48"/>
</g>
</g>
<g id="Clip path group_49">
<mask id="mask48_52_229" style="mask-type:luminance" maskUnits="userSpaceOnUse" x="0" y="0" width="148" height="148">
<g id="SVGID_10__21">
<path id="Vector_98" d="M148 0H0V148H148V0Z" fill="white"/>
</g>
</mask>
<g mask="url(#mask48_52_229)">
<path id="Vector_99" d="M46.9183 88.229C46.8366 88.229 46.7759 88.1627 46.7833 88.081L50.7764 42.3005C50.7835 42.2188 50.8554 42.1525 50.9374 42.1525C51.0191 42.1525 51.0795 42.2188 51.0724 42.3005L47.0793 88.081C47.0719 88.163 47 88.229 46.9183 88.229Z" fill="#E0E0E0" fill-opacity="0.48"/>
</g>
</g>
<g id="Clip path group_50">
<mask id="mask49_52_229" style="mask-type:luminance" maskUnits="userSpaceOnUse" x="0" y="0" width="148" height="148">
<g id="SVGID_10__22">
<path id="Vector_100" d="M148 0H0V148H148V0Z" fill="white"/>
</g>
</mask>
<g mask="url(#mask49_52_229)">
<path id="Vector_101" d="M87.5173 59.6973H81.3981C80.8757 59.6973 80.4891 59.2734 80.5344 58.751L81.0083 53.3188C81.0538 52.796 81.5147 52.3725 82.0375 52.3725H88.1561C88.6791 52.3725 89.0657 52.796 89.0201 53.3188L88.5462 58.751C88.5003 59.2734 88.04 59.6973 87.5173 59.6973Z" fill="#407BFF"/>
</g>
</g>
<g id="Clip path group_51">
<mask id="mask50_52_229" style="mask-type:luminance" maskUnits="userSpaceOnUse" x="0" y="0" width="148" height="148">
<g id="SVGID_10__23">
<path id="Vector_102" d="M148 0H0V148H148V0Z" fill="white"/>
</g>
</mask>
<g mask="url(#mask50_52_229)">
<g id="Group_4" opacity="0.6">
<g id="Group_5">
<g id="Clip path group_52">
<mask id="mask51_52_229" style="mask-type:luminance" maskUnits="userSpaceOnUse" x="80" y="52" width="10" height="8">
<g id="SVGID_12_">
<path id="Vector_103" d="M89.0236 52.3722H80.5308V59.697H89.0236V52.3722Z" fill="white"/>
</g>
</mask>
<g mask="url(#mask51_52_229)">
<path id="Vector_104" d="M87.5173 59.6975H81.3981C80.8757 59.6975 80.4891 59.2737 80.5344 58.7512L81.0083 53.319C81.0538 52.7963 81.5147 52.3727 82.0375 52.3727H88.1561C88.6791 52.3727 89.0657 52.7963 89.0201 53.319L88.5462 58.7512C88.5003 59.2737 88.04 59.6975 87.5173 59.6975Z" fill="white" fill-opacity="0.52"/>
</g>
</g>
</g>
</g>
</g>
</g>
<g id="Clip path group_53">
<mask id="mask52_52_229" style="mask-type:luminance" maskUnits="userSpaceOnUse" x="0" y="0" width="148" height="148">
<g id="SVGID_10__24">
<path id="Vector_105" d="M148 0H0V148H148V0Z" fill="white"/>
</g>
</mask>
<g mask="url(#mask52_52_229)">
<path id="Vector_106" d="M130.206 59.6973H123.774L124.412 52.3725H130.845L128.428 56.0349L130.206 59.6973Z" fill="white" fill-opacity="0.52"/>
</g>
</g>
<g id="Clip path group_54">
<mask id="mask53_52_229" style="mask-type:luminance" maskUnits="userSpaceOnUse" x="0" y="0" width="148" height="148">
<g id="SVGID_10__25">
<path id="Vector_107" d="M148 0H0V148H148V0Z" fill="white"/>
</g>
</mask>
<g mask="url(#mask53_52_229)">
<path id="Vector_108" d="M130.449 59.8453H123.614L124.278 52.2242H131.114L128.599 56.0346L130.449 59.8453ZM123.935 59.5493H129.964L128.258 56.0346L130.577 52.5202H124.548L123.935 59.5493Z" fill="#407BFF"/>
</g>
</g>
<g id="Clip path group_55">
<mask id="mask54_52_229" style="mask-type:luminance" maskUnits="userSpaceOnUse" x="0" y="0" width="148" height="148">
<g id="SVGID_10__26">
<path id="Vector_109" d="M148 0H0V148H148V0Z" fill="white"/>
</g>
</mask>
<g mask="url(#mask54_52_229)">
<path id="Vector_110" d="M106.69 68.8532H100.571C100.049 68.8532 99.6624 68.4293 99.7077 67.9069L100.182 62.4747C100.227 61.9523 100.688 61.5284 101.211 61.5284H107.329C107.852 61.5284 108.239 61.9523 108.193 62.4747L107.72 67.9069C107.674 68.4293 107.213 68.8532 106.69 68.8532Z" fill="#407BFF"/>
</g>
</g>
<g id="Clip path group_56">
<mask id="mask55_52_229" style="mask-type:luminance" maskUnits="userSpaceOnUse" x="0" y="0" width="148" height="148">
<g id="SVGID_10__27">
<path id="Vector_111" d="M148 0H0V148H148V0Z" fill="white"/>
</g>
</mask>
<g mask="url(#mask55_52_229)">
<g id="Group_6" opacity="0.4">
<g id="Group_7">
<g id="Clip path group_57">
<mask id="mask56_52_229" style="mask-type:luminance" maskUnits="userSpaceOnUse" x="99" y="61" width="10" height="8">
<g id="SVGID_14_">
<path id="Vector_112" d="M108.197 61.5284H99.7041V68.8532H108.197V61.5284Z" fill="white"/>
</g>
</mask>
<g mask="url(#mask56_52_229)">
<path id="Vector_113" d="M106.69 68.8532H100.571C100.049 68.8532 99.6622 68.4293 99.7075 67.9069L100.182 62.4747C100.227 61.9523 100.688 61.5284 101.211 61.5284H107.329C107.852 61.5284 108.239 61.9523 108.193 62.4747L107.719 67.9069C107.674 68.4293 107.213 68.8532 106.69 68.8532Z" fill="white" fill-opacity="0.52"/>
</g>
</g>
</g>
</g>
</g>
</g>
<g id="Clip path group_58">
<mask id="mask57_52_229" style="mask-type:luminance" maskUnits="userSpaceOnUse" x="0" y="0" width="148" height="148">
<g id="SVGID_10__28">
<path id="Vector_114" d="M148 0H0V148H148V0Z" fill="white"/>
</g>
</mask>
<g mask="url(#mask57_52_229)">
<path id="Vector_115" d="M118.416 50.5411H102.169C101.646 50.5411 101.26 50.1172 101.305 49.5945L101.779 44.1623C101.824 43.6399 102.286 43.216 102.808 43.216H119.055C119.578 43.216 119.965 43.6399 119.919 44.1623L119.445 49.5945C119.399 50.1172 118.939 50.5411 118.416 50.5411Z" fill="#407BFF"/>
</g>
</g>
<g id="Clip path group_59">
<mask id="mask58_52_229" style="mask-type:luminance" maskUnits="userSpaceOnUse" x="0" y="0" width="148" height="148">
<g id="SVGID_10__29">
<path id="Vector_116" d="M148 0H0V148H148V0Z" fill="white"/>
</g>
</mask>
<g mask="url(#mask58_52_229)">
<path id="Vector_117" d="M53.6103 58.4588C51.1422 58.4588 49.085 57.5871 47.6272 55.9138C45.7533 53.7634 45.4703 51.0929 46.8899 48.9448C48.993 45.7616 54.4779 44.0649 58.0873 44.5353C58.1678 44.5456 58.2184 44.6199 58.201 44.701C58.1835 44.7821 58.1042 44.8378 58.0242 44.8289C54.506 44.3695 49.17 46.0105 47.1335 49.0922C45.5307 51.5182 46.4574 54.1008 47.859 55.7093C49.8156 57.955 52.4849 58.2691 54.3799 58.1365C57.9884 57.8852 61.9418 55.8229 64.2166 53.0053C64.853 52.2171 65.8307 50.706 65.2315 49.4388C64.3462 47.5651 61.3918 47.693 58.9167 48.0133C58.8377 48.0245 58.7657 47.9665 58.7622 47.8854C58.7586 47.8046 58.8223 47.7303 58.9042 47.7196C60.5547 47.5062 64.4202 47.0057 65.5027 49.2944C66.1696 50.7042 65.1241 52.3331 64.4415 53.1782C62.1123 56.063 58.0666 58.1744 54.3746 58.4316C54.1159 58.4499 53.8607 58.4588 53.6103 58.4588Z" fill="#407BFF"/>
</g>
</g>
<g id="Clip path group_60">
<mask id="mask59_52_229" style="mask-type:luminance" maskUnits="userSpaceOnUse" x="0" y="0" width="148" height="148">
<g id="SVGID_10__30">
<path id="Vector_118" d="M148 0H0V148H148V0Z" fill="white"/>
</g>
</mask>
<g mask="url(#mask59_52_229)">
<path id="Vector_119" d="M103.003 67.2204C102.995 67.2204 102.986 67.2201 102.977 67.2192C102.882 67.2109 102.8 67.1559 102.76 67.0721C102.317 66.1649 101.934 65.5779 101.52 65.17C101.408 65.0602 101.415 64.8728 101.536 64.7518C101.656 64.6301 101.844 64.6218 101.956 64.7313C102.355 65.1238 102.72 65.6525 103.118 66.4174C104.064 65.4352 105.17 64.4726 106.412 63.5512C106.549 63.4491 106.733 63.471 106.824 63.5994C106.914 63.7273 106.876 63.9135 106.739 64.015C105.398 65.0102 104.221 66.053 103.24 67.1144C103.177 67.1819 103.09 67.2204 103.003 67.2204Z" fill="white" fill-opacity="0.52"/>
</g>
</g>
<g id="Clip path group_61">
<mask id="mask60_52_229" style="mask-type:luminance" maskUnits="userSpaceOnUse" x="0" y="0" width="148" height="148">
<g id="SVGID_10__31">
<path id="Vector_120" d="M148 0H0V148H148V0Z" fill="white"/>
</g>
</mask>
<g mask="url(#mask60_52_229)">
<path id="Vector_121" d="M92.1058 86.8269C90.273 86.8269 88.912 85.336 89.0718 83.5029C89.2317 81.6703 90.8529 80.1791 92.6857 80.1791C94.5185 80.1791 95.8798 81.67 95.7197 83.5029C95.5599 85.336 93.9387 86.8269 92.1058 86.8269ZM92.6342 80.7711C91.1276 80.7711 89.795 81.9968 89.6638 83.5029C89.5324 85.0095 90.6513 86.2349 92.1576 86.2349C93.664 86.2349 94.9966 85.0092 95.1277 83.5029C95.2588 81.9968 94.1405 80.7711 92.6342 80.7711Z" fill="#407BFF"/>
</g>
</g>
<g id="Clip path group_62">
<mask id="mask61_52_229" style="mask-type:luminance" maskUnits="userSpaceOnUse" x="0" y="0" width="148" height="148">
<g id="SVGID_10__32">
<path id="Vector_122" d="M148 0H0V148H148V0Z" fill="white"/>
</g>
</mask>
<g mask="url(#mask61_52_229)">
<path id="Vector_123" d="M63.6456 68.479C61.8128 68.479 60.4518 66.9878 60.6116 65.1546C60.7718 63.3218 62.3927 61.8308 64.2255 61.8308C66.0586 61.8308 67.4193 63.3218 67.2595 65.1546C67.0997 66.9878 65.4788 68.479 63.6456 68.479ZM64.174 62.4228C62.6676 62.4228 61.3351 63.6486 61.2036 65.1546C61.0722 66.6613 62.1911 67.887 63.6974 67.887C65.2038 67.887 66.5361 66.6613 66.6675 65.1546C66.7989 63.6486 65.6803 62.4228 64.174 62.4228Z" fill="#407BFF"/>
</g>
</g>
</g>
<g id="Group_8">
<g id="Clip path group_63">
<mask id="mask62_52_229" style="mask-type:luminance" maskUnits="userSpaceOnUse" x="0" y="0" width="148" height="148">
<g id="SVGID_16_">
<path id="Vector_124" d="M148 0H0V148H148V0Z" fill="white"/>
</g>
</mask>
<g mask="url(#mask62_52_229)">
<g id="Group_9" opacity="0.1">
<g id="Group_10">
<g id="Clip path group_64">
<mask id="mask63_52_229" style="mask-type:luminance" maskUnits="userSpaceOnUse" x="36" y="71" width="36" height="6">
<g id="SVGID_18_">
<path id="Vector_125" d="M71.8451 71.9991H36.6348V76.4391H71.8451V71.9991Z" fill="white"/>
</g>
</mask>
<g mask="url(#mask63_52_229)">
<path id="Vector_126" d="M69.4233 76.4391H38.6698C37.4488 76.4391 36.5372 75.4401 36.6437 74.2191C36.75 72.9981 37.8363 71.9991 39.0573 71.9991H69.8105C71.0315 71.9991 71.9435 72.9981 71.8369 74.2191C71.7304 75.4401 70.6443 76.4391 69.4233 76.4391Z" fill="black"/>
</g>
</g>
</g>
</g>
</g>
</g>
<g id="Clip path group_65">
<mask id="mask64_52_229" style="mask-type:luminance" maskUnits="userSpaceOnUse" x="0" y="0" width="148" height="148">
<g id="SVGID_16__2">
<path id="Vector_127" d="M148 0H0V148H148V0Z" fill="white"/>
</g>
</mask>
<g mask="url(#mask64_52_229)">
<path id="Vector_128" d="M28.532 69.3844L29.6861 69.8805L28.1371 71.7764C28.1371 71.7764 27.7088 71.0539 27.5108 70.2804C27.4282 69.9575 27.6176 69.6272 27.94 69.5416L28.532 69.3844Z" fill="#FF8B7B"/>
</g>
</g>
<g id="Clip path group_66">
<mask id="mask65_52_229" style="mask-type:luminance" maskUnits="userSpaceOnUse" x="0" y="0" width="148" height="148">
<g id="SVGID_16__3">
<path id="Vector_129" d="M148 0H0V148H148V0Z" fill="white"/>
</g>
</mask>
<g mask="url(#mask65_52_229)">
<path id="Vector_130" d="M30.2164 71.9164L29.5238 72.6854C29.2988 72.9349 28.8989 72.9068 28.711 72.628L28.1367 71.7764L29.6857 69.8805L30.3094 71.3709C30.3863 71.5553 30.3502 71.7678 30.2164 71.9164Z" fill="#FF8B7B"/>
</g>
</g>
<g id="Clip path group_67">
<mask id="mask66_52_229" style="mask-type:luminance" maskUnits="userSpaceOnUse" x="0" y="0" width="148" height="148">
<g id="SVGID_16__4">
<path id="Vector_131" d="M148 0H0V148H148V0Z" fill="white"/>
</g>
</mask>
<g mask="url(#mask66_52_229)">
<path id="Vector_132" d="M70.9329 75.6928L30.901 72.5229C29.6839 72.4267 28.8536 71.3588 29.056 70.1499C29.2588 68.941 30.4203 68.0311 31.6375 68.1273L71.6694 71.2969C72.8865 71.3937 73.7168 72.4614 73.5143 73.6702C73.3119 74.8791 72.1501 75.789 70.9329 75.6928Z" fill="#407BFF"/>
</g>
</g>
<g id="Clip path group_68">
<mask id="mask67_52_229" style="mask-type:luminance" maskUnits="userSpaceOnUse" x="0" y="0" width="148" height="148">
<g id="SVGID_16__5">
<path id="Vector_133" d="M148 0H0V148H148V0Z" fill="white"/>
</g>
</mask>
<g mask="url(#mask67_52_229)">
<path id="Vector_134" d="M42.6853 57.0117C43.1856 58.1406 43.6985 59.2974 44.2174 60.4234C44.7345 61.5449 45.2691 62.6893 45.8439 63.6652C45.9857 63.9037 46.1308 64.1249 46.2503 64.2699C46.4276 64.4803 46.6251 64.6964 46.8287 64.9184C47.2396 65.3586 47.6794 65.7999 48.1193 66.2445C49.0031 67.1298 49.9045 68.0291 50.7803 68.9476L49.884 70.104C48.7557 69.4567 47.6797 68.7555 46.6274 67.9915C46.1003 67.6105 45.5838 67.2127 45.0699 66.78C44.8112 66.5657 44.5569 66.3339 44.2973 66.0823C43.9833 65.7614 43.7625 65.4589 43.5541 65.168C42.7516 64.0038 42.1552 62.8627 41.5626 61.6971C40.9833 60.5296 40.4541 59.3655 39.9609 58.153L42.6853 57.0117Z" fill="#FF8B7B"/>
</g>
</g>
<g id="Clip path group_69">
<mask id="mask68_52_229" style="mask-type:luminance" maskUnits="userSpaceOnUse" x="0" y="0" width="148" height="148">
<g id="SVGID_16__6">
<path id="Vector_135" d="M148 0H0V148H148V0Z" fill="white"/>
</g>
</mask>
<g mask="url(#mask68_52_229)">
<path id="Vector_136" d="M32.8964 56.8442C32.2253 57.9423 31.5348 59.0458 30.846 60.1395L28.7894 63.418L28.5384 63.8274L28.507 63.8786L28.4916 63.9038L28.4892 63.9085C28.4857 63.9153 28.4809 63.9209 28.475 63.9268C28.4629 63.9375 28.4528 63.9757 28.4365 63.9979C28.3833 64.1314 28.332 64.362 28.3107 64.6139C28.2693 65.1265 28.2992 65.7286 28.3617 66.3304C28.4907 67.5398 28.7287 68.8144 28.983 70.0487L27.6116 70.559C26.9909 69.3368 26.4936 68.0993 26.1331 66.7459C25.962 66.0654 25.8137 65.3684 25.7867 64.5751C25.7779 64.1761 25.7859 63.7507 25.9128 63.2567C25.9537 63.1265 25.9842 63.0051 26.0422 62.8689L26.1328 62.6659L26.171 62.5871L26.1994 62.5315L26.4255 62.0869C27.0326 60.9059 27.6732 59.7544 28.3335 58.6172C28.9972 57.4797 29.68 56.3652 30.4041 55.2588L32.8964 56.8442Z" fill="#FF8B7B"/>
</g>
</g>
<g id="Clip path group_70">
<mask id="mask69_52_229" style="mask-type:luminance" maskUnits="userSpaceOnUse" x="0" y="0" width="148" height="148">
<g id="SVGID_16__7">
<path id="Vector_137" d="M148 0H0V148H148V0Z" fill="white"/>
</g>
</mask>
<g mask="url(#mask69_52_229)">
<path id="Vector_138" d="M40.731 48.6343C40.6762 48.7817 40.7085 48.9335 40.8035 48.9729C40.8982 49.0123 41.0196 48.9249 41.0744 48.7775C41.1294 48.6301 41.0969 48.4786 41.0021 48.4392C40.9071 48.3995 40.7858 48.4869 40.731 48.6343Z" fill="#263238"/>
</g>
</g>
<g id="Clip path group_71">
<mask id="mask70_52_229" style="mask-type:luminance" maskUnits="userSpaceOnUse" x="0" y="0" width="148" height="148">
<g id="SVGID_16__8">
<path id="Vector_139" d="M148 0H0V148H148V0Z" fill="white"/>
</g>
</mask>
<g mask="url(#mask70_52_229)">
<path id="Vector_140" d="M40.6951 48.9279C40.6951 48.9279 40.7084 49.9157 40.9189 50.4775C40.5717 50.6139 40.1765 50.3206 40.1765 50.3206L40.6951 48.9279Z" fill="#FF5652"/>
</g>
</g>
<g id="Clip path group_72">
<mask id="mask71_52_229" style="mask-type:luminance" maskUnits="userSpaceOnUse" x="0" y="0" width="148" height="148">
<g id="SVGID_16__9">
<path id="Vector_141" d="M148 0H0V148H148V0Z" fill="white"/>
</g>
</mask>
<g mask="url(#mask71_52_229)">
<path id="Vector_142" d="M41.2712 47.77C41.2531 47.7673 41.2359 47.7596 41.2217 47.7463C41.2114 47.7365 40.9624 47.5104 40.5753 47.606C40.5264 47.6184 40.4758 47.5885 40.4634 47.5388C40.4512 47.4894 40.4814 47.4393 40.5309 47.4272C41.019 47.3061 41.3354 47.5995 41.3484 47.6122C41.3854 47.6468 41.3869 47.7048 41.352 47.7418C41.3307 47.7649 41.3002 47.7744 41.2712 47.77Z" fill="#263238"/>
</g>
</g>
<g id="Clip path group_73">
<mask id="mask72_52_229" style="mask-type:luminance" maskUnits="userSpaceOnUse" x="0" y="0" width="148" height="148">
<g id="SVGID_16__10">
<path id="Vector_143" d="M148 0H0V148H148V0Z" fill="white"/>
</g>
</mask>
<g mask="url(#mask72_52_229)">
<path id="Vector_144" d="M35.3325 48.9256C35.148 50.5192 35.4514 52.5243 34.3616 53.3238C34.3616 53.3238 34.5898 54.8201 37.21 55.2093C40.0912 55.6376 38.7441 53.9756 38.7441 53.9756C37.2129 53.3641 37.382 52.1969 37.7762 51.1355L35.3325 48.9256Z" fill="#FF8B7B"/>
</g>
</g>
<g id="Clip path group_74">
<mask id="mask73_52_229" style="mask-type:luminance" maskUnits="userSpaceOnUse" x="0" y="0" width="148" height="148">
<g id="SVGID_16__11">
<path id="Vector_145" d="M148 0H0V148H148V0Z" fill="white"/>
</g>
</mask>
<g mask="url(#mask73_52_229)">
<path id="Vector_146" d="M33.4331 54.3261C33.3961 53.5911 33.4364 52.4832 33.8884 52.3233C34.386 52.1481 37.3261 52.382 38.7999 53.7166C38.247 54.7621 38.297 55.8665 38.297 55.8665L33.4331 54.3261Z" fill="#263238"/>
</g>
</g>
<g id="Clip path group_75">
<mask id="mask74_52_229" style="mask-type:luminance" maskUnits="userSpaceOnUse" x="0" y="0" width="148" height="148">
<g id="SVGID_16__12">
<path id="Vector_147" d="M148 0H0V148H148V0Z" fill="white"/>
</g>
</mask>
<g mask="url(#mask74_52_229)">
<path id="Vector_148" d="M24.441 120.345C24.1864 120.345 23.814 120.198 23.6755 120.126C23.6598 120.118 23.65 120.101 23.6509 120.083C23.6518 120.065 23.6634 120.049 23.6802 120.042C23.7054 120.032 24.2977 119.805 24.562 119.935C24.6245 119.966 24.6653 120.013 24.684 120.077C24.7189 120.196 24.6784 120.259 24.6384 120.292C24.5928 120.33 24.523 120.345 24.441 120.345ZM23.8173 120.092C24.089 120.211 24.4762 120.306 24.5798 120.221C24.5898 120.213 24.6203 120.188 24.5955 120.103C24.5842 120.065 24.56 120.037 24.5212 120.018C24.3631 119.94 24.0206 120.024 23.8173 120.092Z" fill="#407BFF"/>
</g>
</g>
<g id="Clip path group_76">
<mask id="mask75_52_229" style="mask-type:luminance" maskUnits="userSpaceOnUse" x="0" y="0" width="148" height="148">
<g id="SVGID_16__13">
<path id="Vector_149" d="M148 0H0V148H148V0Z" fill="white"/>
</g>
</mask>
<g mask="url(#mask75_52_229)">
<path id="Vector_150" d="M23.6971 120.132C23.685 120.132 23.6729 120.127 23.6643 120.117C23.6524 120.106 23.6483 120.088 23.653 120.072C23.6596 120.05 23.8206 119.511 24.0787 119.384C24.1465 119.35 24.2154 119.346 24.2835 119.373C24.3898 119.414 24.4019 119.489 24.3996 119.53C24.3874 119.753 23.9233 120.073 23.709 120.13C23.7048 120.131 23.701 120.132 23.6971 120.132ZM24.1935 119.448C24.169 119.448 24.1444 119.454 24.1192 119.466C23.9653 119.543 23.8339 119.832 23.7703 120.01C23.9928 119.911 24.2998 119.657 24.3072 119.525C24.3078 119.512 24.3096 119.482 24.2501 119.458C24.2311 119.451 24.2122 119.448 24.1935 119.448Z" fill="#407BFF"/>
</g>
</g>
<g id="Clip path group_77">
<mask id="mask76_52_229" style="mask-type:luminance" maskUnits="userSpaceOnUse" x="0" y="0" width="148" height="148">
<g id="SVGID_16__14">
<path id="Vector_151" d="M148 0H0V148H148V0Z" fill="white"/>
</g>
</mask>
<g mask="url(#mask76_52_229)">
<path id="Vector_152" d="M39.3193 121.206C39.0866 121.206 38.8457 121.176 38.7208 121.151C38.7018 121.147 38.6876 121.133 38.6844 121.114C38.6808 121.095 38.6897 121.076 38.7063 121.066C38.804 121.009 39.6689 120.514 39.8778 120.856C39.9365 120.952 39.9157 121.02 39.8879 121.06C39.8104 121.171 39.5697 121.206 39.3193 121.206ZM38.8685 121.082C39.2352 121.134 39.7281 121.127 39.8124 121.007C39.8198 120.996 39.8388 120.969 39.7997 120.904C39.681 120.71 39.1556 120.932 38.8685 121.082Z" fill="#407BFF"/>
</g>
</g>
<g id="Clip path group_78">
<mask id="mask77_52_229" style="mask-type:luminance" maskUnits="userSpaceOnUse" x="0" y="0" width="148" height="148">
<g id="SVGID_16__15">
<path id="Vector_153" d="M148 0H0V148H148V0Z" fill="white"/>
</g>
</mask>
<g mask="url(#mask77_52_229)">
<path id="Vector_154" d="M38.7301 121.152C38.7209 121.152 38.712 121.149 38.704 121.144C38.6907 121.135 38.683 121.12 38.6842 121.103C38.6854 121.081 38.7174 120.557 38.9574 120.352C39.0308 120.289 39.1161 120.264 39.212 120.272C39.3416 120.285 39.3792 120.352 39.3884 120.405C39.4257 120.63 38.9826 121.041 38.7493 121.148C38.7431 121.151 38.7369 121.152 38.7301 121.152ZM39.175 120.362C39.1164 120.362 39.0646 120.382 39.0172 120.422C38.86 120.557 38.8029 120.872 38.7845 121.024C39.019 120.882 39.3197 120.556 39.2969 120.419C39.2951 120.408 39.2892 120.372 39.2028 120.364C39.1933 120.363 39.1839 120.362 39.175 120.362Z" fill="#407BFF"/>
</g>
</g>
<g id="Clip path group_79">
<mask id="mask78_52_229" style="mask-type:luminance" maskUnits="userSpaceOnUse" x="0" y="0" width="148" height="148">
<g id="SVGID_16__16">
<path id="Vector_155" d="M148 0H0V148H148V0Z" fill="white"/>
</g>
</mask>
<g mask="url(#mask78_52_229)">
<path id="Vector_156" d="M36.5872 121.106H38.536L38.5559 116.593H36.607L36.5872 121.106Z" fill="#FF8B7B"/>
</g>
</g>
<g id="Clip path group_80">
<mask id="mask79_52_229" style="mask-type:luminance" maskUnits="userSpaceOnUse" x="0" y="0" width="148" height="148">
<g id="SVGID_16__17">
<path id="Vector_157" d="M148 0H0V148H148V0Z" fill="white"/>
</g>
</mask>
<g mask="url(#mask79_52_229)">
<path id="Vector_158" d="M21.4934 119.71L23.3185 120.132L24.8509 115.667L23.0261 115.246L21.4934 119.71Z" fill="#FF8B7B"/>
</g>
</g>
<g id="Clip path group_81">
<mask id="mask80_52_229" style="mask-type:luminance" maskUnits="userSpaceOnUse" x="0" y="0" width="148" height="148">
<g id="SVGID_16__18">
<path id="Vector_159" d="M148 0H0V148H148V0Z" fill="white"/>
</g>
</mask>
<g mask="url(#mask80_52_229)">
<path id="Vector_160" d="M23.6027 119.829L21.4792 119.295C21.402 119.276 21.3238 119.314 21.291 119.385L20.5604 120.988C20.4847 121.154 20.5868 121.355 20.7659 121.397C21.51 121.57 21.8791 121.617 22.813 121.851C23.3875 121.996 24.5585 122.353 25.3518 122.552C26.1276 122.747 26.4153 121.985 26.1057 121.832C24.7172 121.145 24.2619 120.564 23.8848 120.023C23.8167 119.926 23.7158 119.858 23.6027 119.829Z" fill="#263238"/>
</g>
</g>
<g id="Clip path group_82">
<mask id="mask81_52_229" style="mask-type:luminance" maskUnits="userSpaceOnUse" x="0" y="0" width="148" height="148">
<g id="SVGID_16__19">
<path id="Vector_161" d="M148 0H0V148H148V0Z" fill="white"/>
</g>
</mask>
<g mask="url(#mask81_52_229)">
<path id="Vector_162" d="M38.5143 120.88H36.386C36.3064 120.88 36.2395 120.936 36.2253 121.013L35.9074 122.746C35.8742 122.925 36.0172 123.095 36.201 123.092C36.9683 123.079 38.0759 123.035 39.0405 123.035C40.1689 123.035 40.1908 123.096 41.5139 123.096C42.314 123.096 42.5046 122.287 42.1672 122.214C40.6298 121.88 40.3382 121.845 38.9896 121.033C38.8428 120.944 38.6824 120.88 38.5143 120.88Z" fill="#263238"/>
</g>
</g>
<g id="Clip path group_83">
<mask id="mask82_52_229" style="mask-type:luminance" maskUnits="userSpaceOnUse" x="0" y="0" width="148" height="148">
<g id="SVGID_16__20">
<path id="Vector_163" d="M148 0H0V148H148V0Z" fill="white"/>
</g>
</mask>
<g mask="url(#mask82_52_229)">
<path id="Vector_164" d="M32.0798 53.1912C30.2277 53.3392 27.6138 57.9852 27.6138 57.9852L30.9689 61.0257C30.9689 61.0257 32.5552 59.2959 33.8138 57.2837C35.1325 55.1756 33.9736 53.0397 32.0798 53.1912Z" fill="#407BFF"/>
</g>
</g>
<g id="Clip path group_84">
<mask id="mask83_52_229" style="mask-type:luminance" maskUnits="userSpaceOnUse" x="0" y="0" width="148" height="148">
<g id="SVGID_16__21">
<path id="Vector_165" d="M148 0H0V148H148V0Z" fill="white"/>
</g>
</mask>
<g mask="url(#mask83_52_229)">
<g id="Group_11" opacity="0.6">
<g id="Group_12">
<g id="Clip path group_85">
<mask id="mask84_52_229" style="mask-type:luminance" maskUnits="userSpaceOnUse" x="27" y="53" width="8" height="9">
<g id="SVGID_20_">
<path id="Vector_166" d="M34.379 53.1835H27.6143V61.0257H34.379V53.1835Z" fill="white"/>
</g>
</mask>
<g mask="url(#mask84_52_229)">
<path id="Vector_167" d="M32.0798 53.1912C30.2277 53.3392 27.6138 57.9853 27.6138 57.9853L30.9689 61.0258C30.9689 61.0258 32.5552 59.2959 33.8138 57.2837C35.1325 55.1756 33.9736 53.0397 32.0798 53.1912Z" fill="white" fill-opacity="0.52"/>
</g>
</g>
</g>
</g>
</g>
</g>
<g id="Clip path group_86">
<mask id="mask85_52_229" style="mask-type:luminance" maskUnits="userSpaceOnUse" x="0" y="0" width="148" height="148">
<g id="SVGID_16__22">
<path id="Vector_168" d="M148 0H0V148H148V0Z" fill="white"/>
</g>
</mask>
<g mask="url(#mask85_52_229)">
<g id="Group_13" opacity="0.2">
<g id="Group_14">
<g id="Clip path group_87">
<mask id="mask86_52_229" style="mask-type:luminance" maskUnits="userSpaceOnUse" x="30" y="56" width="4" height="6">
<g id="SVGID_22_">
<path id="Vector_169" d="M33.0291 56.5425H30.8105V61.0257H33.0291V56.5425Z" fill="white"/>
</g>
</mask>
<g mask="url(#mask86_52_229)">
<path id="Vector_170" d="M33.0286 56.542L30.8101 60.881L30.9678 61.0252C30.9678 61.0252 31.8247 60.0877 32.7823 58.7927L33.0286 56.542Z" fill="black"/>
</g>
</g>
</g>
</g>
</g>
</g>
<g id="Clip path group_88">
<mask id="mask87_52_229" style="mask-type:luminance" maskUnits="userSpaceOnUse" x="0" y="0" width="148" height="148">
<g id="SVGID_16__23">
<path id="Vector_171" d="M148 0H0V148H148V0Z" fill="white"/>
</g>
</mask>
<g mask="url(#mask87_52_229)">
<path id="Vector_172" d="M41.3648 63.6107C41.031 65.7602 40.5032 68.4171 39.6892 71.6915L29.3774 70.1591C29.4725 68.6809 31.0498 62.0792 30.7396 54.9974C30.6958 54.0007 31.5006 53.1708 32.4979 53.1938C33.0058 53.2054 33.5679 53.232 34.1182 53.2871C35.4425 53.4194 37.3546 53.6606 38.5002 53.938C40.0118 54.305 41.4063 54.9169 41.4063 54.9169C41.4063 54.9169 42.1463 56.0032 41.7479 60.5216C41.6691 61.4138 41.5466 62.4364 41.3648 63.6107Z" fill="#407BFF"/>
</g>
</g>
<g id="Clip path group_89">
<mask id="mask88_52_229" style="mask-type:luminance" maskUnits="userSpaceOnUse" x="0" y="0" width="148" height="148">
<g id="SVGID_16__24">
<path id="Vector_173" d="M148 0H0V148H148V0Z" fill="white"/>
</g>
</mask>
<g mask="url(#mask88_52_229)">
<g id="Group_15" opacity="0.6">
<g id="Group_16">
<g id="Clip path group_90">
<mask id="mask89_52_229" style="mask-type:luminance" maskUnits="userSpaceOnUse" x="29" y="53" width="13" height="19">
<g id="SVGID_24_">
<path id="Vector_174" d="M41.8657 53.1933H29.3774V71.6916H41.8657V53.1933Z" fill="white"/>
</g>
</mask>
<g mask="url(#mask89_52_229)">
<path id="Vector_175" d="M41.3648 63.6108C41.031 65.7603 40.5032 68.4172 39.6892 71.6916L29.3774 70.1592C29.4725 68.681 31.0498 62.0793 30.7396 54.9975C30.6958 54.0008 31.5006 53.1709 32.4979 53.194C33.0058 53.2055 33.5679 53.2321 34.1182 53.2872C35.4425 53.4195 37.3546 53.6607 38.5002 53.9381C40.0118 54.3051 41.4063 54.917 41.4063 54.917C41.4063 54.917 42.1463 56.0033 41.7479 60.5217C41.6691 61.4139 41.5466 62.4366 41.3648 63.6108Z" fill="white" fill-opacity="0.52"/>
</g>
</g>
</g>
</g>
</g>
</g>
<g id="Clip path group_91">
<mask id="mask90_52_229" style="mask-type:luminance" maskUnits="userSpaceOnUse" x="0" y="0" width="148" height="148">
<g id="SVGID_16__25">
<path id="Vector_176" d="M148 0H0V148H148V0Z" fill="white"/>
</g>
</mask>
<g mask="url(#mask90_52_229)">
<g id="Group_17" opacity="0.2">
<g id="Group_18">
<g id="Clip path group_92">
<mask id="mask91_52_229" style="mask-type:luminance" maskUnits="userSpaceOnUse" x="40" y="59" width="2" height="5">
<g id="SVGID_26_">
<path id="Vector_177" d="M41.7479 59.3681H40.0095V63.6107H41.7479V59.3681Z" fill="white"/>
</g>
</mask>
<g mask="url(#mask91_52_229)">
<path id="Vector_178" d="M41.365 63.6107C40.5276 63.0817 39.7435 60.6457 40.0966 59.3681L41.748 60.5216C41.6692 61.4138 41.5467 62.4365 41.365 63.6107Z" fill="black"/>
</g>
</g>
</g>
</g>
</g>
</g>
<g id="Clip path group_93">
<mask id="mask92_52_229" style="mask-type:luminance" maskUnits="userSpaceOnUse" x="0" y="0" width="148" height="148">
<g id="SVGID_16__26">
<path id="Vector_179" d="M148 0H0V148H148V0Z" fill="white"/>
</g>
</mask>
<g mask="url(#mask92_52_229)">
<path id="Vector_180" d="M39.0489 56.2338C38.5164 58.0113 41.7413 63.2413 41.7413 63.2413L45.5994 61.2267C45.5994 61.2267 44.7232 58.5926 43.3361 56.5641C41.7869 54.2988 39.6486 54.2313 39.0489 56.2338Z" fill="#407BFF"/>
</g>
</g>
<g id="Clip path group_94">
<mask id="mask93_52_229" style="mask-type:luminance" maskUnits="userSpaceOnUse" x="0" y="0" width="148" height="148">
<g id="SVGID_16__27">
<path id="Vector_181" d="M148 0H0V148H148V0Z" fill="white"/>
</g>
</mask>
<g mask="url(#mask93_52_229)">
<g id="Group_19" opacity="0.6">
<g id="Group_20">
<g id="Clip path group_95">
<mask id="mask94_52_229" style="mask-type:luminance" maskUnits="userSpaceOnUse" x="38" y="54" width="8" height="10">
<g id="SVGID_28_">
<path id="Vector_182" d="M45.5997 54.7952H38.9897V63.241H45.5997V54.7952Z" fill="white"/>
</g>
</mask>
<g mask="url(#mask94_52_229)">
<path id="Vector_183" d="M39.0489 56.2336C38.5164 58.0111 41.7413 63.2411 41.7413 63.2411L45.5994 61.2266C45.5994 61.2266 44.7232 58.5925 43.3361 56.564C41.7869 54.2987 39.6486 54.2312 39.0489 56.2336Z" fill="white" fill-opacity="0.52"/>
</g>
</g>
</g>
</g>
</g>
</g>
<g id="Clip path group_96">
<mask id="mask95_52_229" style="mask-type:luminance" maskUnits="userSpaceOnUse" x="0" y="0" width="148" height="148">
<g id="SVGID_16__28">
<path id="Vector_184" d="M148 0H0V148H148V0Z" fill="white"/>
</g>
</mask>
<g mask="url(#mask95_52_229)">
<g id="Group_21" opacity="0.2">
<g id="Group_22">
<g id="Clip path group_97">
<mask id="mask96_52_229" style="mask-type:luminance" maskUnits="userSpaceOnUse" x="36" y="116" width="3" height="3">
<g id="SVGID_30_">
<path id="Vector_185" d="M38.5555 116.594H36.5959V118.92H38.5555V116.594Z" fill="white"/>
</g>
</mask>
<g mask="url(#mask96_52_229)">
<path id="Vector_186" d="M38.555 116.594L38.5455 118.92H36.5955L36.6055 116.594H38.555Z" fill="black"/>
</g>
</g>
</g>
</g>
</g>
</g>
<g id="Clip path group_98">
<mask id="mask97_52_229" style="mask-type:luminance" maskUnits="userSpaceOnUse" x="0" y="0" width="148" height="148">
<g id="SVGID_16__29">
<path id="Vector_187" d="M148 0H0V148H148V0Z" fill="white"/>
</g>
</mask>
<g mask="url(#mask97_52_229)">
<g id="Group_23" opacity="0.2">
<g id="Group_24">
<g id="Clip path group_99">
<mask id="mask98_52_229" style="mask-type:luminance" maskUnits="userSpaceOnUse" x="22" y="115" width="3" height="3">
<g id="SVGID_32_">
<path id="Vector_188" d="M24.8508 115.246H22.2341V117.969H24.8508V115.246Z" fill="white"/>
</g>
</mask>
<g mask="url(#mask98_52_229)">
<path id="Vector_189" d="M23.0249 115.247L24.8509 115.669L24.0597 117.97L22.2336 117.547L23.0249 115.247Z" fill="black"/>
</g>
</g>
</g>
</g>
</g>
</g>
<g id="Clip path group_100">
<mask id="mask99_52_229" style="mask-type:luminance" maskUnits="userSpaceOnUse" x="0" y="0" width="148" height="148">
<g id="SVGID_16__30">
<path id="Vector_190" d="M148 0H0V148H148V0Z" fill="white"/>
</g>
</mask>
<g mask="url(#mask99_52_229)">
<path id="Vector_191" d="M36.0082 46.305C35.4437 48.1612 35.0207 49.2153 35.5748 50.5197C36.4083 52.4819 38.9164 52.5693 40.0139 50.9392C41.0023 49.4722 41.7591 46.683 40.2833 45.2359C38.8293 43.8094 36.5729 44.4488 36.0082 46.305Z" fill="#FF8B7B"/>
</g>
</g>
<g id="Clip path group_101">
<mask id="mask100_52_229" style="mask-type:luminance" maskUnits="userSpaceOnUse" x="0" y="0" width="148" height="148">
<g id="SVGID_16__31">
<path id="Vector_192" d="M148 0H0V148H148V0Z" fill="white"/>
</g>
</mask>
<g mask="url(#mask100_52_229)">
<path id="Vector_193" d="M38.9898 48.3466C38.7678 49.2965 38.19 51.0106 36.7683 51.208C35.9771 51.3178 34.6566 51.0846 34.5335 50.4435C34.4101 49.802 34.9035 49.8911 34.7801 49.3654C34.6566 48.84 34.0072 47.0116 34.7431 45.7075C33.7195 45.7936 34.4225 44.2766 36.2601 43.919C35.6926 43.697 35.9641 42.1525 38.8 42.883C40.127 43.2246 41.1109 43.7465 41.2305 44.4577C42.4367 44.9675 42.7561 46.25 42.0075 46.7186C41.282 47.1727 40.177 46.657 40.177 46.657C40.177 46.657 40.6876 49.3826 38.9898 48.3466Z" fill="#263238"/>
</g>
</g>
<g id="Clip path group_102">
<mask id="mask101_52_229" style="mask-type:luminance" maskUnits="userSpaceOnUse" x="0" y="0" width="148" height="148">
<g id="SVGID_16__32">
<path id="Vector_194" d="M148 0H0V148H148V0Z" fill="white"/>
</g>
</mask>
<g mask="url(#mask101_52_229)">
<path id="Vector_195" d="M38.2184 48.1992C38.1829 48.6503 38.3495 49.0907 38.5834 49.3885C38.9353 49.836 39.0537 49.842 39.1999 49.3414C39.3314 48.8912 39.6561 47.8848 39.1854 47.6163C38.7213 47.3517 38.2592 47.6835 38.2184 48.1992Z" fill="#FF8B7B"/>
</g>
</g>
<g id="Clip path group_103">
<mask id="mask102_52_229" style="mask-type:luminance" maskUnits="userSpaceOnUse" x="0" y="0" width="148" height="148">
<g id="SVGID_16__33">
<path id="Vector_196" d="M148 0H0V148H148V0Z" fill="white"/>
</g>
</mask>
<g mask="url(#mask102_52_229)">
<path id="Vector_197" d="M36.0311 71.1477C36.0311 71.1477 34.4313 86.4287 33.4326 92.008C32.3388 98.1181 25.0611 117.772 25.0611 117.772L21.5994 116.902C23.3816 110.103 26.0056 97.4154 27.6076 92.5619C28.8153 85.182 27.6141 75.9074 29.3785 70.1591L36.0311 71.1477Z" fill="#263238"/>
</g>
</g>
<g id="Clip path group_104">
<mask id="mask103_52_229" style="mask-type:luminance" maskUnits="userSpaceOnUse" x="0" y="0" width="148" height="148">
<g id="SVGID_16__34">
<path id="Vector_198" d="M148 0H0V148H148V0Z" fill="white"/>
</g>
</mask>
<g mask="url(#mask103_52_229)">
<path id="Vector_199" d="M25.8848 116.623C25.8996 116.626 25.2449 117.875 25.2449 117.875L21.3501 116.897L21.6736 115.717L25.8848 116.623Z" fill="#407BFF"/>
</g>
</g>
<g id="Clip path group_105">
<mask id="mask104_52_229" style="mask-type:luminance" maskUnits="userSpaceOnUse" x="0" y="0" width="148" height="148">
<g id="SVGID_16__35">
<path id="Vector_200" d="M148 0H0V148H148V0Z" fill="white"/>
</g>
</mask>
<g mask="url(#mask104_52_229)">
<g id="Group_25" opacity="0.2">
<g id="Group_26">
<g id="Clip path group_106">
<mask id="mask105_52_229" style="mask-type:luminance" maskUnits="userSpaceOnUse" x="33" y="77" width="3" height="15">
<g id="SVGID_34_">
<path id="Vector_201" d="M35.3794 77.0863H33.1848V91.2511H35.3794V77.0863Z" fill="white"/>
</g>
</mask>
<g mask="url(#mask105_52_229)">
<path id="Vector_202" d="M35.0421 77.1066C35.1614 77.083 35.273 77.0803 35.3789 77.0989C34.8645 81.6639 34.1375 87.7626 33.5618 91.251C33.084 86.1814 32.6388 77.5814 35.0421 77.1066Z" fill="black"/>
</g>
</g>
</g>
</g>
</g>
</g>
<g id="Clip path group_107">
<mask id="mask106_52_229" style="mask-type:luminance" maskUnits="userSpaceOnUse" x="0" y="0" width="148" height="148">
<g id="SVGID_16__36">
<path id="Vector_203" d="M148 0H0V148H148V0Z" fill="white"/>
</g>
</mask>
<g mask="url(#mask106_52_229)">
<path id="Vector_204" d="M39.6883 71.6911C39.6883 71.6911 40.4967 88.0238 40.6136 93.9654C40.7356 100.146 39.2541 118.47 39.2541 118.47H35.9528C35.9528 118.47 34.7058 101.479 35.3792 93.1905C34.5826 86.8759 32.9111 70.6844 32.9111 70.6844L39.6883 71.6911Z" fill="#263238"/>
</g>
</g>
<g id="Clip path group_108">
<mask id="mask107_52_229" style="mask-type:luminance" maskUnits="userSpaceOnUse" x="0" y="0" width="148" height="148">
<g id="SVGID_16__37">
<path id="Vector_205" d="M148 0H0V148H148V0Z" fill="white"/>
</g>
</mask>
<g mask="url(#mask107_52_229)">
<path id="Vector_206" d="M51.6075 68.7614C51.1371 68.7197 50.5028 68.7857 50.0271 68.9855L49.7877 69.3815C49.5834 69.7184 49.7483 70.1579 50.1239 70.2778L51.281 70.6469L51.8461 70.8189C52.0911 70.8935 52.3567 70.8032 52.5058 70.5951L52.7477 70.2574C52.9244 70.0105 52.8877 69.6695 52.6621 69.4662L52.1403 68.9955C51.992 68.8617 51.8061 68.7789 51.6075 68.7614Z" fill="#FF8B7B"/>
</g>
</g>
<g id="Clip path group_109">
<path id="Vector_207" d="M39.8385 117.155C39.8536 117.155 39.705 118.526 39.705 118.526H35.6894L35.5334 117.302L39.8385 117.155Z" fill="#407BFF"/>
</g>
</g>
</g>
</svg>
